<?xml version="1.0" encoding="utf-8"?>
<!-- Generator: Adobe Illustrator 24.1.0, SVG Export Plug-In . SVG Version: 6.00 Build 0)  -->
<svg version="1.1" id="Layer_1" xmlns="http://www.w3.org/2000/svg" xmlns:xlink="http://www.w3.org/1999/xlink" x="0px" y="0px"
	 viewBox="0 0 512 512" style="enable-background:new 0 0 512 512;" xml:space="preserve">
<style type="text/css">
	.st0{fill:#EB3131;}
</style>
<g id="icomoon-ignore">
</g>
<path class="st0" d="M437,75C388.7,26.6,324.4,0,256,0S123.3,26.6,75,75C26.6,123.3,0,187.6,0,256s26.6,132.7,75,181
	c48.4,48.4,112.6,75,181,75s132.7-26.6,181-75c48.4-48.4,75-112.6,75-181S485.4,123.3,437,75L437,75z M448,256
	c0,41.4-13.2,79.8-35.6,111.2L144.8,99.6C176.2,77.2,214.6,64,256,64C361.9,64,448,150.1,448,256z M64,256
	c0-41.4,13.2-79.8,35.6-111.2l267.6,267.6C335.8,434.8,297.4,448,256,448C150.1,448,64,361.9,64,256z"/>
</svg>
