<svg width="652" height="162" viewBox="0 0 652 162" fill="none" xmlns="http://www.w3.org/2000/svg">
<path d="M312.65 58H304.955L296.315 27.13H303.56L309.005 47.335H309.23L314.72 27.13H321.695L327.14 47.335H327.365L332.81 27.13H339.38L330.695 58H323.09L318.05 39.46H317.78L312.65 58ZM362.046 46.165V58H355.116V46.165L344.541 27.13H352.371L358.806 39.37H359.031L365.466 27.13H372.576L362.046 46.165ZM407.078 44.77C407.078 47.59 406.463 50.035 405.233 52.105C404.003 54.175 402.338 55.75 400.238 56.83C398.168 57.91 395.858 58.45 393.308 58.45C390.758 58.45 388.433 57.91 386.333 56.83C384.263 55.75 382.613 54.175 381.383 52.105C380.153 50.035 379.538 47.59 379.538 44.77V40.36C379.538 37.54 380.153 35.095 381.383 33.025C382.613 30.955 384.263 29.38 386.333 28.3C388.433 27.22 390.758 26.68 393.308 26.68C395.858 26.68 398.168 27.22 400.238 28.3C402.338 29.38 404.003 30.955 405.233 33.025C406.463 35.095 407.078 37.54 407.078 40.36V44.77ZM399.788 39.37C399.788 37.09 399.188 35.335 397.988 34.105C396.788 32.845 395.228 32.215 393.308 32.215C391.388 32.215 389.828 32.845 388.628 34.105C387.428 35.335 386.828 37.09 386.828 39.37V45.76C386.828 48.04 387.428 49.81 388.628 51.07C389.828 52.3 391.388 52.915 393.308 52.915C395.228 52.915 396.788 52.3 397.988 51.07C399.188 49.81 399.788 48.04 399.788 45.76V39.37ZM447.038 58V35.275H446.813L438.803 58H431.513L423.503 35.275H423.278V58H416.978V27.13H428.183L435.383 47.515H435.563L442.763 27.13H453.968V58H447.038ZM464.984 27.13H479.204V32.665H475.604V52.465H479.204V58H464.984V52.465H468.629V32.665H464.984V27.13ZM499.226 43.78C498.896 43.3 498.446 42.595 497.876 41.665C497.306 40.705 496.931 40.075 496.751 39.775L496.571 39.91V58H490.226V27.13H496.121L505.841 41.44L507.191 43.555C507.671 44.395 508.046 45.01 508.316 45.4L508.451 45.265V27.13H514.796V58H508.901L499.226 43.78ZM532.05 45.76C532.05 48.04 532.665 49.81 533.895 51.07C535.155 52.3 536.73 52.915 538.62 52.915C540.48 52.915 541.935 52.36 542.985 51.25C544.035 50.14 544.56 48.475 544.56 46.255H537.585V41.215H551.085V51.88C551.085 53.38 551.115 54.7 551.175 55.84C551.265 56.98 551.325 57.7 551.355 58H547.53C547.14 56.92 546.78 55.765 546.45 54.535C545.49 55.765 544.23 56.725 542.67 57.415C541.14 58.105 539.505 58.45 537.765 58.45H537.54C535.08 58.45 532.875 57.895 530.925 56.785C529.005 55.675 527.49 54.085 526.38 52.015C525.3 49.945 524.76 47.53 524.76 44.77V40.36C524.76 37.6 525.33 35.185 526.47 33.115C527.61 31.045 529.2 29.455 531.24 28.345C533.31 27.235 535.65 26.68 538.26 26.68H538.89C541.14 26.68 543.195 27.16 545.055 28.12C546.915 29.05 548.385 30.385 549.465 32.125C550.545 33.835 551.085 35.83 551.085 38.11H544.515C544.515 36.16 543.945 34.69 542.805 33.7C541.665 32.71 540.225 32.215 538.485 32.215C536.595 32.215 535.05 32.845 533.85 34.105C532.65 35.335 532.05 37.09 532.05 39.37V45.76ZM299.24 72.13H313.46V77.665H309.86V97.465H313.46V103H299.24V97.465H302.885V77.665H299.24V72.13ZM333.482 88.78C333.152 88.3 332.702 87.595 332.132 86.665C331.562 85.705 331.187 85.075 331.007 84.775L330.827 84.91V103H324.482V72.13H330.377L340.097 86.44L341.447 88.555C341.927 89.395 342.302 90.01 342.572 90.4L342.707 90.265V72.13H349.052V103H343.157L333.482 88.78ZM371.795 72.13C374.345 72.13 376.655 72.67 378.725 73.75C380.825 74.83 382.49 76.405 383.72 78.475C384.95 80.545 385.565 82.99 385.565 85.81V89.32C385.565 92.14 384.95 94.585 383.72 96.655C382.49 98.725 380.825 100.3 378.725 101.38C376.655 102.46 374.345 103 371.795 103H360.095V72.13H371.795ZM367.07 97.465H371.795C373.715 97.465 375.275 96.85 376.475 95.62C377.675 94.36 378.275 92.59 378.275 90.31V84.82C378.275 82.54 377.675 80.785 376.475 79.555C375.275 78.295 373.715 77.665 371.795 77.665H367.07V97.465ZM395.445 103V72.13H417.18L416.415 77.665H402.285V84.415H415.47V89.95H402.285V97.465H416.55L417.315 103H395.445ZM433.77 103H426.84V72.13H441.735C443.415 72.13 444.96 72.535 446.37 73.345C447.81 74.125 448.95 75.22 449.79 76.63C450.63 78.04 451.05 79.615 451.05 81.355V81.625C451.05 83.335 450.63 84.925 449.79 86.395C448.98 87.835 447.855 88.975 446.415 89.815C445.005 90.655 443.445 91.075 441.735 91.075H433.77V103ZM433.77 85.63H440.115C441.255 85.63 442.2 85.255 442.95 84.505C443.7 83.725 444.075 82.825 444.075 81.805V81.535C444.075 80.485 443.7 79.585 442.95 78.835C442.23 78.055 441.285 77.665 440.115 77.665H433.77V85.63ZM459.64 103V72.13H481.375L480.61 77.665H466.48V84.415H479.665V89.95H466.48V97.465H480.745L481.51 103H459.64ZM500.035 88.78C499.705 88.3 499.255 87.595 498.685 86.665C498.115 85.705 497.74 85.075 497.56 84.775L497.38 84.91V103H491.035V72.13H496.93L506.65 86.44L508 88.555C508.48 89.395 508.855 90.01 509.125 90.4L509.26 90.265V72.13H515.605V103H509.71L500.035 88.78ZM538.348 72.13C540.898 72.13 543.208 72.67 545.278 73.75C547.378 74.83 549.043 76.405 550.273 78.475C551.503 80.545 552.118 82.99 552.118 85.81V89.32C552.118 92.14 551.503 94.585 550.273 96.655C549.043 98.725 547.378 100.3 545.278 101.38C543.208 102.46 540.898 103 538.348 103H526.648V72.13H538.348ZM533.623 97.465H538.348C540.268 97.465 541.828 96.85 543.028 95.62C544.228 94.36 544.828 92.59 544.828 90.31V84.82C544.828 82.54 544.228 80.785 543.028 79.555C541.828 78.295 540.268 77.665 538.348 77.665H533.623V97.465ZM561.998 103V72.13H583.733L582.968 77.665H568.838V84.415H582.023V89.95H568.838V97.465H583.103L583.868 103H561.998ZM602.392 88.78C602.062 88.3 601.612 87.595 601.042 86.665C600.472 85.705 600.097 85.075 599.917 84.775L599.737 84.91V103H593.392V72.13H599.287L609.007 86.44L610.357 88.555C610.837 89.395 611.212 90.01 611.482 90.4L611.617 90.265V72.13H617.962V103H612.067L602.392 88.78ZM641.741 77.71V103H634.856V77.71H626.081V72.13H650.471V77.71H641.741ZM299.24 148V117.13H306.215V142.24H318.905L319.67 148H299.24ZM327.734 117.13H341.954V122.665H338.354V142.465H341.954V148H327.734V142.465H331.379V122.665H327.734V117.13ZM364.586 139.18L371.651 117.13H378.311L368.141 148H360.176L350.051 117.13H357.341L364.361 139.18H364.586ZM386.392 117.13H400.612V122.665H397.012V142.465H400.612V148H386.392V142.465H390.037V122.665H386.392V117.13ZM420.635 133.78C420.305 133.3 419.855 132.595 419.285 131.665C418.715 130.705 418.34 130.075 418.16 129.775L417.98 129.91V148H411.635V117.13H417.53L427.25 131.44L428.6 133.555C429.08 134.395 429.455 135.01 429.725 135.4L429.86 135.265V117.13H436.205V148H430.31L420.635 133.78ZM453.458 135.76C453.458 138.04 454.073 139.81 455.303 141.07C456.563 142.3 458.138 142.915 460.028 142.915C461.888 142.915 463.343 142.36 464.393 141.25C465.443 140.14 465.968 138.475 465.968 136.255H458.993V131.215H472.493V141.88C472.493 143.38 472.523 144.7 472.583 145.84C472.673 146.98 472.733 147.7 472.763 148H468.938C468.548 146.92 468.188 145.765 467.858 144.535C466.898 145.765 465.638 146.725 464.078 147.415C462.548 148.105 460.913 148.45 459.173 148.45H458.948C456.488 148.45 454.283 147.895 452.333 146.785C450.413 145.675 448.898 144.085 447.788 142.015C446.708 139.945 446.168 137.53 446.168 134.77V130.36C446.168 127.6 446.738 125.185 447.878 123.115C449.018 121.045 450.608 119.455 452.648 118.345C454.718 117.235 457.058 116.68 459.668 116.68H460.298C462.548 116.68 464.603 117.16 466.463 118.12C468.323 119.05 469.793 120.385 470.873 122.125C471.953 123.835 472.493 125.83 472.493 128.11H465.923C465.923 126.16 465.353 124.69 464.213 123.7C463.073 122.71 461.633 122.215 459.893 122.215C458.003 122.215 456.458 122.845 455.258 124.105C454.058 125.335 453.458 127.09 453.458 129.37V135.76Z" fill="white"/>
<path d="M125.875 40C136.921 40 145.875 31.0457 145.875 20C145.875 8.9543 136.921 0 125.875 0C114.829 0 105.875 8.9543 105.875 20C105.875 31.0457 114.829 40 125.875 40Z" fill="white"/>
<path d="M251.175 151.6L202.575 103.3C200.375 101.2 196.975 101.2 194.775 103.3L179.175 119L152.475 92.5002C153.075 70.1002 205.075 62.3001 216.575 42.6001C221.575 34.1001 211.075 24.3001 203.075 30.1001C192.675 37.6001 154.475 58.5002 105.375 43.9002C66.075 32.3001 49.775 31.0002 39.675 30.2002C26.275 29.0001 25.175 48.1002 37.975 48.9002C73.875 51.3002 92.075 62.9002 96.375 96.1002L73.275 119.4L57.675 103.9C56.675 102.9 55.275 102.3 53.775 102.3C52.275 102.3 50.875 102.9 49.875 103.9L1.575 152.5C-0.525 154.7 -0.525 158.1 1.575 160.3C3.775 162.4 7.175 162.4 9.375 160.3L53.775 115.6L69.375 131.1C70.375 132.1 71.775 132.7 73.275 132.7C74.775 132.7 76.175 132.1 77.175 131.1L126.075 81.8002L175.375 130.7C176.375 131.7 177.775 132.3 179.275 132.3C180.775 132.3 182.175 131.7 183.175 130.7L198.675 115.1L243.375 159.5C244.475 160.6 245.875 161.1 247.275 161.1C248.675 161.1 250.075 160.6 251.175 159.5C253.275 157.2 253.275 153.7 251.175 151.6Z" fill="white"/>
</svg>
